PathFileType	4	(X/Y/Z)	Patient4_TMGait_0pt2_03_left_11.trc.trc
DataRate	CameraRate	NumFrames	NumMarkers	Units	OrigDataRate	OrigDataStartFrame	OrigNumFrames
45.602605863192	45.602605863192	4	33	mm	45.602605863192	71	       141
Frame#	Time	Sacral			L.Shoulder			Chest			R.Shoulder			Neck			R.ASIS			L.ASIS			R.Thigh.Superior			R.Thigh.Lateral			R.Thigh.Inferior			R.Patella			L.Thigh.Superior			L.Thigh.Lateral			L.Thigh.Inferior			L.Patella			L.Shank.Superior			L.Shank.Lateral			L.Shank.Inferior			R.Shank.Superior			R.Shank.Lateral			R.Shank.Inferior			R.Heel			R.Midfoot.Superior			R.Midfoot.Lateral			R.Toe			L.Heel			L.Midfoot.Lateral			L.Midfoot.Superior			L.Toe			L.Elbow			L.Wrist			R.Elbow			R.Wrist			
		X1	Y1	Z1	X2	Y2	Z2	X3	Y3	Z3	X4	Y4	Z4	X5	Y5	Z5	X6	Y6	Z6	X7	Y7	Z7	X8	Y8	Z8	X9	Y9	Z9	X10	Y10	Z10	X11	Y11	Z11	X12	Y12	Z12	X13	Y13	Z13	X14	Y14	Z14	X15	Y15	Z15	X16	Y16	Z16	X17	Y17	Z17	X18	Y18	Z18	X19	Y19	Z19	X20	Y20	Z20	X21	Y21	Z21	X22	Y22	Z22	X23	Y23	Z23	X24	Y24	Z24	X25	Y25	Z25	X26	Y26	Z26	X27	Y27	Z27	X28	Y28	Z28	X29	Y29	Z29	X30	Y30	Z30	X31	Y31	Z31	X32	Y32	Z32	X33	Y33	Z33	

71	23.835000000000	739.172220691974	1009.145097687085	399.163921681786	972.696627047850	1442.346890920784	280.309380851680	1015.650967718009	1365.649182327167	462.614911837093	882.139893542513	1436.056636976866	602.517719827656	901.171832138545	1497.873088239841	427.785810638036	935.697269403828	949.740098346073	570.339835277978	984.234850205441	963.329461126341	299.470863765513	1012.848645923387	764.489307167289	552.435491847956	948.893900818706	650.130423956905	620.249719848505	1039.643447394551	603.038215728016	549.931417017604	1063.257515700944	515.413566598095	571.735425009879	1016.102109935314	745.555964573623	342.481396680214	933.347668318460	621.489578376553	262.106612458062	1004.319405937338	552.512036443512	349.023972455852	1001.056374645968	483.290048549359	359.036265242731	969.908843026986	409.147166597220	346.724757713345	884.528026808162	299.002227996481	281.987702153962	911.350831613196	188.005179512384	364.411181351260	1031.043831607239	427.555159439051	585.903510607967	954.971168544207	330.667127851743	654.397145100123	1007.685756971948	229.410917485906	611.064220657449	883.787537656785	53.250367210063	592.980132693870	1051.970689307907	116.049233621286	634.481074111173	966.603491046682	48.856069680929	669.130599310266	1172.409593485362	71.290405643531	665.069995429173	769.556899806090	37.532125491137	388.177091670868	851.848931461210	35.229292518414	315.529362044235	931.341448038394	96.254381581817	352.488927162116	1061.781001784473	48.120975830684	336.669495905366	1135.081673219565	1155.879572820252	137.981175388027	1383.140533778966	1118.463073272887	205.983171599634	716.417552109155	1119.773386586540	659.567458988672	715.745000921076	857.316212758238	661.009095174877	
72	23.856928571429	738.899471619949	1010.997125939057	400.667506801454	976.397639247791	1443.190876309384	285.390362678473	1016.241869165083	1365.998616610382	468.262282847164	880.998576751885	1437.267763296848	606.020805460818	902.916710499721	1498.723550342490	431.877046018632	932.976188389327	950.299428817758	574.332969200733	984.711387702138	963.942363939717	304.011296139474	1008.719016173952	764.476084236035	557.820597921810	942.911010887011	650.190455812596	624.514754472725	1034.374062994528	603.149845802945	555.286220559144	1057.471559498976	517.632589995578	575.753077012939	1012.994621318395	745.054333782077	345.880474979901	929.208968217052	622.641438296264	263.578668535949	998.457428239726	552.233562192729	350.544949733347	994.096991578108	483.389608489838	360.050500814015	963.693738117957	409.813983830529	347.239782142304	878.910472541464	299.386988400098	282.173205219840	906.176858207748	188.370618787218	364.573547251410	1029.466485982952	429.106361333543	589.798141603365	958.264319267000	328.954571458600	659.307332783878	1014.635475330441	229.950051125598	615.167507390798	897.262092181893	49.886314278559	598.908952777549	1064.530082651424	117.170311501463	637.509747410606	981.914239061175	46.845018809315	673.137966164700	1186.876595652812	75.435216233481	664.526814351509	765.063713265711	37.509771657058	388.149637189675	847.357020445588	35.207058973579	315.509990526594	926.784134193062	96.281675283609	352.485413914541	1057.252597231955	48.273472024958	336.728301585705	1143.424385989080	1160.679057578932	143.712292365222	1391.789959267093	1135.537882855891	214.700004291502	714.730027386395	1120.820592246582	659.521482304856	718.860737115377	858.040343963316	660.635461769232	
73	23.878857142857	738.872772628752	1012.264327271291	402.806961403816	979.752321965302	1443.464910066356	290.798639746997	1016.983935382788	1365.879680117780	474.113931995990	880.377808926715	1437.980740684231	610.035853190454	904.695684185295	1499.074914650573	436.416084368197	930.782924951652	950.149061300946	578.480766424303	985.328048930062	964.237978921142	308.692625236751	1005.199517369592	763.807200622588	563.005077829969	937.688936551558	649.513800885950	628.373817666057	1029.850992067225	602.702570017662	560.075001635820	1052.106829104491	518.933237152565	579.253782409346	1010.510895514561	744.391701320057	349.357415940969	925.858753967557	623.503240021387	265.310028832054	993.545706814077	551.772333760983	352.278892671357	988.178843126994	483.220820014628	361.264794747898	958.310448829885	410.188818963940	347.979469075095	873.871577156062	299.709438601415	282.517156407464	901.309372856260	188.582911865073	364.809142577287	1027.728752165685	429.873311584441	593.257137019396	960.513384996655	327.240041049030	663.387318311252	1019.821412011002	230.235950366625	618.598058126055	907.721856988904	47.669503925370	603.713699931221	1074.355186547931	117.939050503580	639.836702294827	993.875609505398	45.409610524088	676.226952797420	1197.965050277687	78.239582292969	663.630756926820	760.587831361782	37.516057375900	388.125594989863	842.880773849079	35.198797107919	315.492069299362	922.257507890170	96.294876299485	352.506049750746	1052.743388942216	48.376112486318	336.782620124633	1151.030133838221	1164.650851740474	149.893458138131	1399.139788092453	1152.028639785416	223.657593034748	714.000937847984	1121.212844701769	660.716196136280	722.715912240235	858.238993651779	661.800666240628	
74	23.900785714286	739.130300988760	1012.928143949443	405.598454713508	982.747854200801	1443.181280146846	296.527422463103	1017.892805140878	1365.310353652744	480.177048227979	880.271568946151	1438.174347447826	614.601987003662	906.496290885185	1498.932734955612	441.417220447887	929.186493621232	949.296892506841	582.792497414029	986.140669290326	964.227684913590	313.514963181825	1002.404974530804	762.501836769407	567.934314319433	933.346852210733	648.134386341207	631.798831240350	1026.181708304527	601.715053278175	564.274160064346	1047.329654118560	519.297573846754	582.272556581940	1008.768791675805	743.563825843206	352.908021435045	923.390825675702	624.045420298747	267.358823770427	989.713001083377	551.111288824128	354.271164275558	983.445482604439	482.757314509657	362.741297854249	953.856551981593	410.238375107442	349.004238747620	869.476466989698	299.973565027123	283.065656458941	896.781293287279	188.626285185795	365.138393169444	1025.935454193791	429.795404984686	596.282153645415	961.732233105570	325.351589650651	666.600188125054	1023.305386412451	230.027057777785	621.310059584248	915.132702755364	46.199540223675	607.287845066166	1081.460129286542	118.063230827101	641.397442666288	1002.440597870120	44.221459664064	678.370108493813	1205.787699161203	79.451571441059	662.480042080064	756.130940457518	37.550109224778	388.105279431105	838.421257197959	35.207040560631	315.478075465677	917.765577966237	96.297384129306	352.554246539058	1048.254764052134	48.425902458321	336.829819167519	1157.851942520770	1167.734434781146	156.463913967185	1405.147336962705	1167.673849444918	232.715829451976	714.089195966951	1121.001674018057	663.233372675549	726.957187987597	857.965223740181	664.594011995634	
